# AST/ASF file generated using VICON BodyLanguage
# -----------------------------------------------
:version 1.10
:name VICON
:units
  mass 1.0
  length 0.45
  angle deg
:documentation
   .ast/.asf automatically generated from VICON data using
   VICON BodyBuilder and BodyLanguage model FoxedUp or BRILLIANT.MOD
:root
   order TX TY TZ RX RY RZ
   axis XYZ
   position 0 0 0  
   orientation 0 0 0 
:bonedata
  begin
     id 1 
     name lhipjoint
     direction 0.630082 -0.636569 0.44472 
     length 2.82754 
     axis 0 0 0  XYZ
  end
  begin
     id 2 
     name lfemur
     direction 0.34202 -0.939693 0  
     length 7.26371  
     axis 0 0 20  XYZ
    dof rx ry rz
    limits (-160.0 20.0)
           (-70.0 70.0)
           (-60.0 70.0)
  end
  begin
     id 3 
     name ltibia
     direction 0.34202 -0.939693 0   
     length 7.88616   
     axis 0 0 20   XYZ
    dof rx
    limits (-10.0 170.0)
  end
  begin
     id 4 
     name lfoot
     direction 0.0603448 -0.165796 0.984312   
     length 1.77861   
     axis -90 7.62852e-016 20   XYZ
    dof rx rz
    limits (-45.0 90.0)
           (-70.0 20.0)
  end
  begin
     id 5 
     name ltoes
     direction 1.53577e-011 -4.21876e-011 1   
     length 0.902235   
     axis -90 7.62852e-016 20   XYZ
    dof rx
    limits (-90.0 20.0)
  end
  begin
     id 6 
     name rhipjoint
     direction -0.656778 -0.61817 0.431866   
     length 2.9117  
     axis 0 0 0  XYZ 
  end
  begin
     id 7 
     name rfemur
     direction -0.34202 -0.939693 0   
     length 6.81603   
     axis 0 0 -20   XYZ
    dof rx ry rz
    limits (-160.0 20.0)
           (-70.0 70.0)
           (-70.0 60.0)
  end
  begin
     id 8 
     name rtibia
     direction -0.34202 -0.939693 0   
     length 8.05997   
     axis 0 0 -20   XYZ
    dof rx
    limits (-10.0 170.0)
 end
 begin
     id 9 
     name rfoot
     direction -0.0862404 -0.236944 0.967688   
     length 1.84899  
     axis -90 -7.62852e-016 -20   XYZ
    dof rx rz
    limits (-45.0 90.0)
           (-20.0 70.0)
  end
  begin
     id 10 
     name rtoes
     direction -1.53561e-011 -4.21798e-011 1   
     length 0.931579   
     axis -90 -7.62852e-016 -20   XYZ
    dof rx
    limits (-90.0 20.0)
  end
  begin
     id 11 
     name lowerback
     direction -0.0110203 0.991769 -0.127564   
     length 2.05686   
     axis 0 0 0   XYZ
    dof rx ry rz
    limits (-20.0 45.0)
           (-30.0 30.0)
           (-30.0 30.0)
  end
  begin
     id 12 
     name upperback
     direction 0.0109719 0.99993 -0.00432479   
     length 2.06234   
     axis 0 0 0   XYZ
    dof rx ry rz
    limits (-20.0 45.0)
           (-30.0 30.0)
           (-30.0 30.0)
  end
  begin
     id 13 
     name thorax
     direction 0.0173308 0.998351 0.0547306   
     length 2.09856   
     axis 0 0 0   XYZ
    dof rx ry rz
    limits (-20.0 45.0)
           (-30.0 30.0)
           (-30.0 30.0)
  end
  begin
     id 14 
     name lowerneck
     direction -0.0311736 0.989033 0.144366   
     length 1.98151   
     axis 0 0 0   XYZ
    dof rx ry rz
    limits (-20.0 45.0)
           (-30.0 30.0)
           (-30.0 30.0)
  end
  begin
     id 15 
     name upperneck
     direction 0.0421057 0.975772 -0.214698   
     length 2.01457   
     axis 0 0 0   XYZ
    dof rx ry rz
    limits (-20.0 45.0)
           (-30.0 30.0)
           (-30.0 30.0)
  end
  begin
     id 16
     name head
     direction 0.0136911 0.995958 -0.0887718  
     length 2.03562  
     axis 0 0 0   XYZ
    dof rx ry rz
    limits (-20.0 45.0)
           (-30.0 30.0)
           (-30.0 30.0)
  end
  begin
     id 17 
     name lclavicle
     direction 0.915335 0.396201 0.0720134  
     length 4.16217  
     axis 0 0 0   XYZ
    dof ry rz
    limits (-20.0 10.0)
           (0.0 20.0)
  end
  begin
     id 18 
     name lhumerus
     direction 1 -4.48965e-011 6.383e-018   
     length 4.93042   
     axis -180 -30 -90   XYZ
    dof rx ry rz
    limits (-60.0 90.0)
           (-90.0 90.0)
           (-90.0 90.0)
  end
  begin
     id 19
     name lradius
     direction 1 -4.48972e-011 8.8689e-027   
     length 3.68177   
     axis -180 -30 -90   XYZ
    dof rx
    limits (-10.0 170.0)
  end
  begin
     id 20
     name lwrist
     direction 1 -4.48953e-011 1.17971e-026   
     length 1.84089   
     axis -7.69454e-015 90 90   XYZ
    dof ry
    limits (-180.0 0.0)
 end
  begin
     id 21 
     name lhand
     direction 1 -4.49027e-011 2.35802e-026   
     length 0.721479   
     axis -1.50533e-014 90 90   XYZ
    dof rx rz
    limits (-90.0 90.0)
           (-45.0 45.0)
  end
  begin
     id 22 
     name lfingers
     direction 1 -4.48915e-011 4.72027e-026   
     length 0.581675   
     axis -3.01059e-014 90 90   XYZ
    dof rx
    limits (0.0 90.0)
  end
  begin
     id 23
     name lthumb
     direction 0.707107 -6.34948e-011 0.707107   
     length 0.835172   
     axis -90 45 -5.12164e-014   XYZ
    dof rx rz
    limits (-45.0 45.0)
           (-45.0 45.0)
  end
  begin
     id 24 
     name rclavicle
     direction -0.882781 0.469197 0.0234974   
     length 3.95647  
     axis 0 0 0   XYZ 
    dof ry rz
    limits (-10.0 20.0)
           (-20.0 0.0)
  end
  begin
     id 25 
     name rhumerus
     direction -1 -4.48965e-011 -1.54906e-018  
     length 5.07905   
     axis -180 30 90   XYZ
    dof rx ry rz
    limits (-90.0 60.0)
           (-90.0 90.0)
           (-90.0 90.0)
  end
  begin
     id 26 
     name rradius
     direction -1 -4.48972e-011 5.47489e-027   
     length 3.54394   
     axis -180 30 90   XYZ
    dof rx
    limits (-10.0 170.0)
  end
  begin
     id 27 
     name rwrist
     direction -1 -4.48955e-011 1.17969e-026   
     length 1.77197   
     axis -7.69454e-015 -90 -90   XYZ
    dof ry
    limits (-180.0 0.0)
  end
  begin
     id 28
     name rhand
     direction -1 -4.48982e-011 2.35888e-026   
     length 0.681156   
     axis -1.50533e-014 -90 -90   XYZ
    dof rx rz
    limits (-90.0 90.0)
           (-45.0 45.0)
  end
  begin
     id 29
     name rfingers
     direction -1 -4.48955e-011 4.71877e-026   
     length 0.549165   
     axis -3.01059e-014 -90 -90   XYZ
    dof rx
    limits (0.0 90.0)
  end
  begin
     id 30
     name rthumb
     direction -0.707107 -6.3491e-011 0.707107   
     length 0.788495   
     axis -90 -45 5.12164e-014   XYZ
    dof rx rz
    limits (-45.0 45.0)
           (-45.0 45.0)
  end
:hierarchy
  begin
    root lhipjoint rhipjoint lowerback
    lhipjoint lfemur
    lfemur ltibia
    ltibia lfoot
    lfoot ltoes
    rhipjoint rfemur
    rfemur rtibia
    rtibia rfoot
    rfoot rtoes
    lowerback upperback
    upperback thorax
    thorax lowerneck lclavicle rclavicle
    lowerneck upperneck
    upperneck head
    lclavicle lhumerus
    lhumerus lradius
    lradius lwrist
    lwrist lhand lthumb
    lhand lfingers
    rclavicle rhumerus
    rhumerus rradius
    rradius rwrist
    rwrist rhand rthumb
    rhand rfingers
  end

#!OML:ASF H:\Bending\Project 1\Capture day 1\Session 1\Subject.ASF
:FULLY-SPECIFIED
:DEGREES
165
root -12.3552 17.4264 -16.3382 -170.713 83.3162 -211.201
lowerback 54.4971 -6.29788 6.43764
upperback 8.2746 -1.59402 1.77522
thorax -11.7846 -0.177522 -0.31318
lowerneck -27.2865 -3.80836 -2.71642
upperneck 5.26056 -3.64965 -2.02638
head 5.81822 -1.94995 -0.687487
rclavicle 7.31528e-014 1.51698e-014
rhumerus 54.8098 4.65163 -81.7757
rradius 26.0686
rwrist -1.9815
rhand -19.1296 -15.7876
rfingers 7.12502
rthumb 7.18009 -45.6458
lclavicle 7.31528e-014 1.51698e-014
lhumerus 52.1189 -10.5087 77.6065
lradius 36.4432
lwrist 40.367
lhand -25.3334 12.8289
lfingers 7.12502
lthumb 1.18952 42.8053
rfemur -66.8509 -7.87344 8.96305
rtibia 43.6359
rfoot -13.8972 -18.2343
rtoes 1.0782
lfemur -70.866 -1.17447 -10.1226
ltibia 40.5869
lfoot -9.1641 -0.961649
ltoes -21.4185
166
root -12.3556 17.4332 -16.3276 -170.225 83.3669 -210.584
lowerback 54.583 -6.17332 6.29674
upperback 8.29957 -1.51042 1.79733
thorax -11.7656 -0.138003 -0.264004
lowerneck -27.069 -3.79415 -2.70065
upperneck 5.13711 -3.66253 -1.93478
head 5.74831 -1.94636 -0.655964
rclavicle -5.24792e-014 -5.76103e-014
rhumerus 54.3756 4.49889 -83.0541
rradius 26.699
rwrist -2.35096
rhand -20.6292 -16.7298
rfingers 7.12502
rthumb 5.73238 -46.6323
lclavicle -5.24792e-014 -5.76103e-014
lhumerus 51.7307 -10.0742 78.9622
lradius 37.1577
lwrist 39.028
lhand -25.0497 12.8717
lfingers 7.12502
lthumb 1.46353 42.8464
rfemur -66.6131 -7.54248 8.85533
rtibia 43.4569
rfoot -13.8811 -18.3762
rtoes 1.70709
lfemur -70.6297 -1.18583 -9.9482
ltibia 40.4239
lfoot -9.09663 -0.804271
ltoes -21.5694
167
root -12.3568 17.442 -16.3165 -169.697 83.4674 -209.954
lowerback 54.5957 -5.97548 6.10461
upperback 8.33213 -1.37834 1.84499
thorax -11.7317 -0.0795415 -0.188219
lowerneck -26.8847 -3.79879 -2.70784
upperneck 5.00617 -3.69314 -1.81979
head 5.68143 -1.94977 -0.615899
rclavicle 2.70347e-014 -3.1731e-014
rhumerus 53.9935 4.32687 -84.2401
rradius 27.2698
rwrist -2.49992
rhand -21.8813 -17.7118
rfingers 7.12502
rthumb 4.52334 -47.6435
lclavicle 2.70347e-014 -3.1731e-014
lhumerus 51.2184 -9.75349 80.1721
lradius 38.0672
lwrist 37.8413
lhand -24.9235 12.7992
lfingers 7.12502
lthumb 1.58549 42.7731
rfemur -66.3949 -7.16011 8.74207
rtibia 43.2259
rfoot -13.8607 -18.4821
rtoes 2.57696
lfemur -70.4076 -1.18084 -9.71817
ltibia 40.2616
lfoot -9.04462 -0.632926
ltoes -21.2227
168
root -12.3623 17.4835 -16.3051 -169.13 83.5911 -209.304
lowerback 54.542 -5.75152 5.90315
upperback 8.36756 -1.22987 1.90133
thorax -11.6888 -0.0154931 -0.107611
lowerneck -26.7434 -3.81087 -2.7527
upperneck 4.84247 -3.72314 -1.66172
head 5.61133 -1.94919 -0.556147
rclavicle -4.21423e-014 -5.88154e-014
rhumerus 53.5791 4.2138 -85.1057
rradius 27.8861
rwrist -2.6628
rhand -23.3204 -18.8016
rfingers 7.12502
rthumb 3.13372 -48.7584
lclavicle -4.21423e-014 -5.88154e-014
lhumerus 50.6535 -9.55092 81.0983
lradius 39.0294
lwrist 36.9359
lhand -24.9334 12.7023
lfingers 7.12502
lthumb 1.57591 42.6762
rfemur -66.1091 -6.80597 8.70169
rtibia 42.859
rfoot -13.8027 -18.5107
rtoes 3.54899
lfemur -70.1023 -1.19845 -9.45654
ltibia 40.0042
lfoot -9.01006 -0.436094
ltoes -20.4718
169
root -12.3648 17.4942 -16.2943 -168.573 83.7122 -208.667
lowerback 54.4211 -5.54119 5.72138
upperback 8.40751 -1.09579 1.95067
thorax -11.6348 0.0418876 -0.0380689
lowerneck -26.6532 -3.81269 -2.82833
upperneck 4.63907 -3.73055 -1.46023
head 5.53684 -1.93346 -0.475117
rclavicle -5.08889e-014 -5.25661e-014
rhumerus 53.0229 4.24711 -85.4096
rradius 28.6807
rwrist -3.07038
rhand -24.9964 -19.9343
rfingers 7.12502
rthumb 1.51505 -49.9087
lclavicle -5.08889e-014 -5.25661e-014
lhumerus 50.0998 -9.45325 81.6728
lradius 39.904
lwrist 36.312
lhand -25.0701 12.6597
lfingers 7.12502
lthumb 1.44389 42.6346
rfemur -65.938 -6.59517 8.75406
rtibia 42.5799
rfoot -13.7046 -18.4049
rtoes 4.46245
lfemur -69.8813 -1.20228 -9.18557
ltibia 39.8132
lfoot -8.96677 -0.254262
ltoes -19.5332
170
root -12.3681 17.5053 -16.2844 -168.097 83.8109 -208.1
lowerback 54.2208 -5.35137 5.56369
upperback 8.45783 -0.980994 1.99459
thorax -11.5612 0.0910734 0.022122
lowerneck -26.609 -3.7902 -2.90475
upperneck 4.41419 -3.70316 -1.24452
head 5.46204 -1.89879 -0.38577
rclavicle 7.196e-014 4.07012e-014
rhumerus 52.3186 4.47044 -84.969
rradius 29.6738
rwrist -3.86977
rhand -26.2934 -20.7749
rfingers 7.12502
rthumb 0.262347 -50.7545
lclavicle 7.196e-014 4.07012e-014
lhumerus 49.5866 -9.4612 81.9148
lradius 40.6057
lwrist 35.9205
lhand -25.3063 12.7181
lfingers 7.12502
lthumb 1.21577 42.6944
rfemur -65.765 -6.52433 8.90043
rtibia 42.2924
rfoot -13.5593 -18.1985
rtoes 5.21163
lfemur -69.6353 -1.20832 -8.95894
ltibia 39.5838
lfoot -8.90167 -0.0977375
ltoes -18.6601
